<svg width="200" height="120" viewBox="0 0 200 120" fill="none" xmlns="http://www.w3.org/2000/svg">
<rect width="120" height="200" transform="translate(0 120) rotate(-90)" fill="white"/>
<path d="M97.5102 50.611L61.5497 50.611C60.6938 50.611 60 51.3048 60 52.1607C60 53.0166 60.6938 53.7105 61.5497 53.7105L62.6352 53.7105C63.4055 53.7105 64.03 54.3349 64.03 55.1052C64.03 55.8755 64.6545 56.5 65.4248 56.5L93.4802 56.5C94.2505 56.5 94.875 55.8755 94.875 55.1052C94.875 54.3349 95.4994 53.7105 96.2697 53.7105L97.5103 53.7105C98.3661 53.7105 99.06 53.0166 99.06 52.1607C99.06 51.3048 98.3661 50.611 97.5102 50.611Z" stroke="black" stroke-width="0.1"/>
<path d="M63.12 52.0832C63.12 52.6224 62.6591 53.0638 62.085 53.0638C61.5109 53.0638 61.05 52.6224 61.05 52.0832C61.05 51.5441 61.5109 51.1027 62.085 51.1027C62.6591 51.1027 63.12 51.5441 63.12 52.0832Z" stroke="#FF0000" stroke-width="0.1"/>
<path d="M66.81 54.0278C66.81 54.4856 66.4185 54.8611 65.93 54.8611C65.4415 54.8611 65.05 54.4856 65.05 54.0278C65.05 53.5699 65.4415 53.1944 65.93 53.1944C66.4185 53.1944 66.81 53.5699 66.81 54.0278Z" stroke="#FF0000" stroke-width="0.1"/>
<path d="M77.775 52.0832C77.775 52.6224 77.314 53.0638 76.74 53.0638C76.1659 53.0638 75.705 52.6224 75.705 52.0832C75.705 51.5441 76.1659 51.1027 76.74 51.1027C77.314 51.1027 77.775 51.5441 77.775 52.0832Z" stroke="#FF0000" stroke-width="0.1"/>
<path d="M95.88 52.0832C95.88 52.6224 96.3409 53.0638 96.915 53.0638C97.4891 53.0638 97.95 52.6224 97.95 52.0832C97.95 51.5441 97.4891 51.1027 96.915 51.1027C96.3409 51.1027 95.88 51.5441 95.88 52.0832Z" stroke="#FF0000" stroke-width="0.1"/>
<path d="M91.19 54.0278C91.19 54.4856 91.5815 54.8611 92.07 54.8611C92.5585 54.8611 92.95 54.4856 92.95 54.0278C92.95 53.5699 92.5585 53.1944 92.07 53.1944C91.5815 53.1944 91.19 53.5699 91.19 54.0278Z" stroke="#FF0000" stroke-width="0.1"/>
<path d="M81.285 52.0832C81.285 52.6224 81.7459 53.0638 82.32 53.0638C82.8941 53.0638 83.355 52.6224 83.355 52.0832C83.355 51.5441 82.8941 51.1027 82.32 51.1027C81.7459 51.1027 81.285 51.5441 81.285 52.0832Z" stroke="#FF0000" stroke-width="0.1"/>
</svg>
